<?xml version="1.0" encoding="utf-8"?>
<!-- Generator: Adobe Illustrator 24.0.0, SVG Export Plug-In . SVG Version: 6.00 Build 0)  -->
<svg version="1.1" id="Capa_1" xmlns:serif="http://www.serif.com/"
	 xmlns="http://www.w3.org/2000/svg" xmlns:xlink="http://www.w3.org/1999/xlink" x="0px" y="0px" viewBox="0 0 150.2 144.6"
	 style="enable-background:new 0 0 150.2 144.6;" xml:space="preserve">
<style type="text/css">
	.st0{opacity:0.1;}
	.st1{clip-path:url(#SVGID_2_);}
	.st2{fill:#007CC2;}
</style>
<g class="st0">
	<defs>
		
			<rect id="SVGID_1_" y="0" transform="matrix(-1 -4.488289e-11 4.488289e-11 -1 150.2362 144.5669)" class="st0" width="150.2" height="144.6"/>
	</defs>
	<clipPath id="SVGID_2_">
		<use xlink:href="#SVGID_1_"  style="overflow:visible;"/>
	</clipPath>
	<g transform="matrix(1,0,0,1,-0.0563312,-0.423864)" class="st1">
		<g transform="matrix(0.183266,0,0,0.183266,35.2182,23.3776)">
			<path class="st2" d="M-169.5-84.5c-6.7,36.1,1.9,71.5,21.1,99.6c19.3,28.1,49.2,48.9,85.4,55.7l679.5,126.9l116.2,21.7
				c80.8,15.1,138.7,90.2,127.4,171.6c-12,86.9-94,145.3-179.3,129.4c-69.8-13-119.5-71.6-124.4-139.3c-0.9-12.7-0.1-25.8,2.3-38.9
				c0.1-0.4,0.2-0.8,0.2-1.2c10.8-55.5-23.8-109.5-79.3-119.9L-4.9,130.5c-5.5-1-10.6,2.7-11.6,8.1c-6.7,36,1.9,71.5,21.1,99.6
				c19.3,28.1,49.2,48.9,85.4,55.6l318.9,59.5c2.7,0.5,4.6,2.9,4.5,5.7c-5.9,149.2,102.2,283.6,256.5,304.4
				c144.8,19.5,280-67.1,322-207.1c51.5-171.6-57.5-345-228.7-377l-921-172C-163.3-93.6-168.4-89.9-169.5-84.5"/>
		</g>
	</g>
</g>
</svg>
