<?xml version="1.0" encoding="utf-8"?>
<!-- Generator: Adobe Illustrator 24.0.0, SVG Export Plug-In . SVG Version: 6.00 Build 0)  -->
<svg version="1.1" id="Capa_1" xmlns:serif="http://www.serif.com/"
	 xmlns="http://www.w3.org/2000/svg" xmlns:xlink="http://www.w3.org/1999/xlink" x="0px" y="0px" viewBox="0 0 150.2 144.6"
	 style="enable-background:new 0 0 150.2 144.6;" xml:space="preserve">
<style type="text/css">
	.st0{opacity:0.1;}
	.st1{clip-path:url(#SVGID_2_);}
	.st2{fill:#007CC2;}
</style>
<g class="st0">
	<defs>
		<rect id="SVGID_1_" x="0" y="0" class="st0" width="150.2" height="144.6"/>
	</defs>
	<clipPath id="SVGID_2_">
		<use xlink:href="#SVGID_1_"  style="overflow:visible;"/>
	</clipPath>
	<g transform="matrix(1,0,0,1,-0.0563312,-0.423864)" class="st1">
		<g transform="matrix(0.183266,0,0,0.183266,35.2182,23.3776)">
			<path class="st2" d="M605.5-84.5c-1-5.5-6.2-9.2-11.7-8.1l-921,172c-171.2,32-280.2,205.5-228.7,377
				c42,139.9,177.2,226.6,322,207.1C-79.5,642.7,28.6,508.3,22.7,359.1c-0.1-2.8,1.8-5.2,4.5-5.7l318.9-59.5
				c36.2-6.8,66.2-27.5,85.4-55.6c19.2-28.1,27.8-63.5,21.1-99.6c-1-5.5-6.2-9.2-11.6-8.1L-43.6,221
				c-55.6,10.4-90.2,64.4-79.3,119.9c0.1,0.4,0.2,0.8,0.2,1.2c2.4,13.1,3.2,26.1,2.3,38.9c-4.9,67.7-54.6,126.3-124.4,139.3
				c-85.3,15.9-167.3-42.4-179.3-129.4c-11.3-81.4,46.7-156.5,127.4-171.6l116.2-21.7L499,70.8c36.2-6.8,66.2-27.5,85.4-55.7
				C603.6-12.9,612.2-48.3,605.5-84.5"/>
		</g>
	</g>
</g>
</svg>
