<?xml version="1.0" encoding="utf-8"?>
<!-- Generator: Adobe Illustrator 24.0.0, SVG Export Plug-In . SVG Version: 6.00 Build 0)  -->
<svg version="1.1" id="Ñëîé_1" xmlns="http://www.w3.org/2000/svg" xmlns:xlink="http://www.w3.org/1999/xlink" x="0px" y="0px"
	 viewBox="0 0 1333.2 358.1" style="enable-background:new 0 0 1333.2 358.1;" xml:space="preserve">
<style type="text/css">
	.st0{fill:#E6E6E6;}
	.st1{fill:#FFFFFF;}
	.st2{fill:#AAAAAA;}
	.st3{fill:#2B80F7;}
	.st4{fill:#0A28AE;}
</style>
<g>
	<path class="st0" d="M1295.7,351.2H37.5c-16.1,0-29.1-13-29.1-29.1V35.9c0-16.1,13-29.1,29.1-29.1h1258.3c16.1,0,29.1,13,29.1,29.1
		v286.2C1324.8,338.2,1311.8,351.2,1295.7,351.2z"/>
	<path class="st1" d="M146.5,241.7h116.8c5.5,0,9.9-4.4,9.9-9.9V114.9c0-5.5-4.4-9.9-9.9-9.9H146.5c-5.5,0-9.9,4.4-9.9,9.9v116.8
		C136.5,237.2,141,241.7,146.5,241.7z"/>
	<g>
		<rect x="424.3" y="149.3" width="6.5" height="50.6"/>
		<path d="M504.4,162.7c-3.5,0-5.9,0.9-8,2.6c-1.5,1.1-2.9,2.7-4,4.7h-0.1c-1.6-4.3-5.3-7.3-10.3-7.3c-6,0-9.4,3.2-11.4,6.7h-0.2
			l-0.3-5.9h-5.8c0.2,3,0.3,6.1,0.3,9.8v26.5h6.4v-21.9c0-1.1,0.2-2.3,0.5-3.2c1.1-3.3,4.1-6.6,8.2-6.6c5,0,7.6,4.2,7.6,10v21.8h6.4
			v-22.4c0-1.2,0.2-2.4,0.5-3.3c1.1-3.2,4-6,7.8-6c5.3,0,7.9,4.2,7.9,11.2v20.6h6.5v-21.4C516.4,165.9,509.2,162.7,504.4,162.7z"/>
		<path d="M561.1,162.7c-6,0-10.2,3.4-12,6.8H549l-0.4-6h-5.9c0.2,3,0.3,6.1,0.3,9.8v26.5h6.6V178c0-1.1,0.1-2.3,0.4-3.1
			c1.1-3.7,4.5-6.7,8.9-6.7c6.2,0,8.4,4.9,8.4,10.7v20.9h6.6v-21.7C573.9,165.7,566.1,162.7,561.1,162.7z"/>
		<path d="M600.1,162.7c-10.1,0-18,7.1-18,19.3c0,11.5,7.6,18.7,17.4,18.7c8.8,0,18.1-5.9,18.1-19.3
			C617.5,170.3,610.5,162.7,600.1,162.7z M599.8,195.7c-6.4,0-11-6-11-14c0-6.9,3.4-14.1,11.2-14.1c7.8,0,10.9,7.8,10.9,13.9
			C610.8,189.8,606.1,195.7,599.8,195.7z"/>
		<path d="M633.8,153.1l-6.5,1.7v8.7h-5.6v5h5.6v19.8c0,4.3,0.7,7.5,2.5,9.5c1.6,1.8,4.1,2.8,7.1,2.8c2.5,0,4.6-0.4,5.9-0.9l-0.3-5
			c-0.8,0.2-2.1,0.4-3.8,0.4c-3.7,0-5-2.5-5-7.1v-19.6h9.5v-5h-9.5V153.1z"/>
		<path d="M692.1,177.6c0-7.3-2.7-14.9-13.8-14.9c-4.6,0-8.9,1.3-11.9,3.2l1.5,4.3c2.5-1.6,6.1-2.7,9.5-2.7c7.4,0,8.2,5.4,8.2,8.4
			v0.8c-14-0.1-21.8,4.7-21.8,13.5c0,5.2,3.8,10.4,11.1,10.4c5.2,0,9.1-2.6,11.1-5.4h0.2l0.5,4.6h6c-0.5-2.5-0.6-5.6-0.6-8.7V177.6z
			 M685.8,187.6c0,0.7-0.1,1.4-0.4,2.1c-1.1,3.1-4.1,6.1-8.8,6.1c-3.4,0-6.2-2-6.2-6.3c0-7.1,8.2-8.3,15.4-8.2V187.6z"/>
		<path d="M724.7,170.7h-0.3l-0.2-7.1h-5.8c0.2,3.4,0.3,7.1,0.3,11.3v25h6.5v-19.4c0-1.1,0.1-2.2,0.3-3.1c0.9-5,4.2-8.5,8.9-8.5
			c0.9,0,1.6,0.1,2.3,0.2v-6.2c-0.6-0.1-1.1-0.2-1.9-0.2C730.4,162.7,726.4,165.8,724.7,170.7z"/>
		<path d="M757.9,162.7c-10.1,0-18,7.1-18,19.3c0,11.5,7.6,18.7,17.4,18.7c8.8,0,18.1-5.9,18.1-19.3
			C775.4,170.3,768.3,162.7,757.9,162.7z M757.6,195.7c-6.4,0-11-6-11-14c0-6.9,3.4-14.1,11.2-14.1c7.8,0,10.9,7.8,10.9,13.9
			C768.6,189.8,763.9,195.7,757.6,195.7z"/>
		<path d="M802.8,162.7c-5.9,0-10.1,2.6-12.4,6.7h-0.1v-22.8h-6.5v43.9c0,3.2-0.1,6.9-0.3,9.4h5.7l0.3-6h0.2
			c2.7,4.8,6.9,6.8,12.2,6.8c8.1,0,16.3-6.4,16.3-19.4C818.2,170.2,811.8,162.7,802.8,162.7z M800.5,195.4c-4.8,0-8.6-3.2-9.9-7.7
			c-0.1-0.8-0.3-1.6-0.3-2.4v-6.5c0-1.1,0.2-2,0.4-2.7c1.3-5,5.5-8.1,10.1-8.1c7.1,0,10.8,6.2,10.8,13.5
			C811.5,189.8,807.4,195.4,800.5,195.4z"/>
		<path d="M841.8,162.7c-10.1,0-18,7.1-18,19.3c0,11.5,7.6,18.7,17.4,18.7c8.8,0,18.1-5.9,18.1-19.3
			C859.3,170.3,852.2,162.7,841.8,162.7z M841.5,195.7c-6.4,0-11-6-11-14c0-6.9,3.4-14.1,11.2-14.1c7.8,0,10.9,7.8,10.9,13.9
			C852.5,189.8,847.8,195.7,841.5,195.7z"/>
		<path d="M885,168.6v-5h-9.5v-10.4l-6.5,1.7v8.7h-5.6v5h5.6v19.8c0,4.3,0.7,7.5,2.5,9.5c1.6,1.8,4.1,2.8,7.1,2.8
			c2.5,0,4.6-0.4,5.9-0.9l-0.3-5c-0.8,0.2-2.1,0.4-3.8,0.4c-3.7,0-5-2.5-5-7.1v-19.6H885z"/>
		<path d="M448,145.9c-1.9,0-3.6,1.3-3.6,3.4c0,2.2,1.6,3.4,3.5,3.4c0.2,0,0.4,0,0.6,0c0,3.2-2,5.7-5.3,7.2l1.2,2.9
			c4.8-2,7.7-6,7.7-11.1C452.2,148.1,450.6,145.9,448,145.9z"/>
	</g>
	<g>
		<path class="st2" d="M1156.1,189.8c-6.2,13.1-19.5,22.2-35,22.2c-14.5,0-27.2-8-33.8-19.9l21-20.8h-25.8h-36.9
			c0,0.7-0.1,1.3-0.1,2c0,0.7,0,1.3,0.1,2v58.1l15-14.9c13.8,18.4,35.8,30.3,60.5,30.3c25.6,0,48.2-12.8,61.8-32.2L1156.1,189.8z"/>
		<path class="st3" d="M1121.2,97.7h-62.1l15.8,15.9c-17.3,13.5-28.6,34.2-29.2,57.6h36.9c0.7-13.2,8-24.6,18.6-31.1l20,20.2v-25.9
			L1121.2,97.7C1121.2,97.7,1121.2,97.7,1121.2,97.7z"/>
		<path class="st4" d="M1179.9,125.9c-13.9-17.1-35-28.1-58.7-28.1v36.9c13.5,0,25.3,7,32.2,17.4l-19.5,19.3h25.8h36.9v-62.1
			L1179.9,125.9z"/>
	</g>
</g>
</svg>
