<?xml version="1.0" encoding="utf-8"?>
<!-- Generator: Adobe Illustrator 24.0.0, SVG Export Plug-In . SVG Version: 6.00 Build 0)  -->
<svg version="1.1" id="Capa_1" xmlns:serif="http://www.serif.com/"
	 xmlns="http://www.w3.org/2000/svg" xmlns:xlink="http://www.w3.org/1999/xlink" x="0px" y="0px" viewBox="0 0 612 185"
	 style="enable-background:new 0 0 612 185;" xml:space="preserve">
<style type="text/css">
	.st0{fill:#007CC2;}
</style>
<g transform="matrix(1,0,0,1,-0.0563312,-0.423864)">
	<g transform="matrix(0.183266,0,0,0.183266,35.2182,23.3776)">
		<path class="st0" d="M992.3-104c-1-5.5-6.2-9.2-11.7-8.1l-921,172c-171.2,32-280.2,205.5-228.7,377
			c42,139.9,177.2,226.6,322,207.1c154.4-20.8,262.4-155.1,256.5-304.4c-0.1-2.8,1.8-5.2,4.5-5.7l318.9-59.5
			c36.2-6.8,66.2-27.5,85.4-55.6c19.2-28.1,27.8-63.5,21.1-99.6c-1-5.5-6.2-9.2-11.6-8.1l-484.6,90.5
			c-55.6,10.4-90.2,64.4-79.3,119.9c0.1,0.4,0.2,0.8,0.2,1.2c2.4,13.1,3.2,26.1,2.3,38.9c-4.9,67.7-54.6,126.3-124.4,139.3
			C56.7,516.6-25.3,458.3-37.4,371.3C-48.7,289.9,9.3,214.9,90.1,199.8l116.2-21.7L885.7,51.2c36.2-6.8,66.2-27.5,85.4-55.7
			C990.4-32.5,999-67.8,992.3-104"/>
	</g>
	<g transform="matrix(0.183266,0,0,0.183266,56.7431,22.0261)">
		<path class="st0" d="M1593.6,789.6c-47.1,0-82.6-37.5-82.6-87.3c0-48.2,36.3-85.9,82.6-85.9c45.6,0,81.3,38,81.3,86.6
			C1674.9,752.4,1639.9,789.6,1593.6,789.6 M1593,527.5c-102.9,0-177.6,74.7-177.6,177.6c0,100.6,75,173.6,178.3,173.6
			c100.9,0,176.9-75.5,176.9-175.6C1770.5,602.9,1694.2,527.5,1593,527.5"/>
	</g>
	<g transform="matrix(0.183266,0,0,0.183266,69.9583,25.815)">
		<path class="st0" d="M1962.8,522.7c0-2.5-2.1-4.6-4.6-4.6h-99.4v-15.4c0-20.9,12.2-33.4,32.7-33.4h38.2
			c36.6,0,66.4-29.8,66.4-66.4c0-2.5-2.1-4.6-4.6-4.6h-103.4c-46.2,0-70.9,6.5-94.5,24.8c-19.4,15.5-30.5,43-30.5,75.5v19.4h-32
			c-2.5,0-4.6,2.1-4.6,4.6v61.9c0,2.5,2.1,4.6,4.6,4.6h32v252.9c0,2.5,2.1,4.6,4.6,4.6h86.5c2.5,0,4.6-2.1,4.6-4.6V589.1h37.6
			C1933,589.1,1962.8,559.3,1962.8,522.7L1962.8,522.7z"/>
	</g>
	<g transform="matrix(0.183266,0,0,0.183266,92.3765,23.4924)">
		<path class="st0" d="M2589.1,737.1h-88.2c-1.5,0-2.9,0.8-3.7,2.1c-19.9,29.8-41.7,42.5-73,42.5c-47.1,0-81.3-35.9-81.3-85.3
			c0-50.9,34.2-87.9,81.3-87.9c31.9,0,59.1,16.4,72.7,44c0.8,1.6,2.3,2.6,4,2.6h87.8c1.5,0,2.8-0.7,3.7-1.9c0.9-1.1,1.2-2.5,0.8-3.9
			c-20-77.7-89.2-129.9-172.4-129.9c-97.2,0-173.4,76.7-173.6,174.6c-0.1,92.2,74.4,171.3,166.2,176.3
			c83.3,4.7,157.2-47.9,180.2-127.5c0.4-1.3,0.1-2.8-0.8-3.9C2592,737.8,2590.6,737.1,2589.1,737.1"/>
	</g>
	<g transform="matrix(0.183266,0,0,0.183266,75.1249,22.0261)">
		<path class="st0" d="M2107.2,789.6c-47.1,0-82.6-37.5-82.6-87.3c0-48.2,36.3-85.9,82.6-85.9c45.6,0,81.3,38,81.3,86.6
			C2188.4,752.4,2153.5,789.6,2107.2,789.6 M2291.2,538.8h-80.5c-2.5,0-4.6,2.1-4.6,4.6v19.5l-3.3-2.4c-29.6-21.6-62.9-33-96.3-33
			c-102.9,0-177.6,74.7-177.6,177.6c0,100.6,75,173.6,178.3,173.6c33.1,0,66.2-11.4,95.7-32.9l3.3-2.4v19.4c0,2.5,2.1,4.6,4.6,4.6
			h80.5c2.5,0,4.6-2.1,4.6-4.6V543.4C2295.8,540.8,2293.7,538.8,2291.2,538.8"/>
	</g>
	<g transform="matrix(0.183266,0,0,0.183266,43.5634,29.8774)">
		<path class="st0" d="M1225.4,495.9h-86.5c-2.5,0-4.6,2.1-4.6,4.6v179c0,42.8-21.4,67.3-58.6,67.3c-38.8,0-55.3-20.1-55.3-67.3
			v-179c0-2.5-2.1-4.6-4.6-4.6h-86.5c-2.5,0-4.6,2.1-4.6,4.6v192.3c0,52.8,6.3,74.7,29.4,101.8c24,27.3,56.2,41.2,95.6,41.2
			c43.2,0,70.5-14.4,86-45.4l3.9-7.9v37.4c0,2.5,2.1,4.6,4.6,4.6h81.2c2.5,0,4.6-2.1,4.6-4.6V500.5
			C1230,498,1227.9,495.9,1225.4,495.9"/>
	</g>
	<g transform="matrix(0.183266,0,0,0.183266,27.0589,22.0261)">
		<path class="st0" d="M764.3,789.6c-47.1,0-82.6-37.5-82.6-87.3c0-48.2,36.3-85.9,82.6-85.9c45.6,0,81.3,38,81.3,86.6
			C845.6,752.4,810.6,789.6,764.3,789.6 M948.4,538.8h-80.5c-2.5,0-4.6,2.1-4.6,4.6v19.5l-3.3-2.4c-29.6-21.6-62.9-33-96.3-33
			c-102.9,0-177.6,74.7-177.6,177.6c0,100.6,75,173.6,178.3,173.6c33.1,0,66.2-11.4,95.7-32.9l3.3-2.4v19.4c0,2.5,2.1,4.6,4.6,4.6
			h80.5c2.5,0,4.6-2.1,4.6-4.6V543.4C953,540.8,950.9,538.8,948.4,538.8"/>
	</g>
	<g transform="matrix(0.183266,0,0,0.183266,51.4497,26.0737)">
		<path class="st0" d="M1445.7,521.3L1445.7,521.3c0-2.5-2.1-4.6-4.6-4.6h-72.3V410.1c0-2.5-2.1-4.6-4.6-4.6h-41.9
			c-27,0-49.2,22.1-49.2,49.2v62h-44c-2.5,0-4.6,2.1-4.6,4.6v61.9c0,2.5,2.1,4.6,4.6,4.6h44v252.9c0,2.5,2,4.6,4.6,4.6h86.5
			c2.5,0,4.6-2.1,4.6-4.6V587.7h11.1c0.1,0,0.1-0.1,0.2-0.1C1416.4,587.2,1445.7,557.6,1445.7,521.3"/>
	</g>
	<g transform="matrix(0.183266,0,0,0.183266,99.3242,26.2112)">
		<path class="st0" d="M2783.2,515.9H2711V409.4c0-2.5-2.1-4.6-4.6-4.6h-41.9c-27,0-49.2,22.1-49.2,49.2v62h-44
			c-2.5,0-4.6,2.1-4.6,4.6v61.9c0,2.5,2.1,4.6,4.6,4.6h44v252.9c0,2.5,2.1,4.6,4.6,4.6h86.5c2.5,0,4.6-2.1,4.6-4.6V587h11.1
			c0.1,0,0.1-0.1,0.2-0.1c36.2-0.5,65.6-30,65.6-66.4v0C2787.8,518,2785.8,515.9,2783.2,515.9"/>
	</g>
</g>
</svg>
